<?xml version="1.0" standalone="no"?>
<!DOCTYPE svg PUBLIC "-//W3C//DTD SVG 20010904//EN"
 "http://www.w3.org/TR/2001/REC-SVG-20010904/DTD/svg10.dtd">
<svg version="1.0" xmlns="http://www.w3.org/2000/svg"
 width="500.000000pt" height="500.000000pt" viewBox="0 0 500.000000 500.000000"
 preserveAspectRatio="xMidYMid meet">

<g transform="translate(0.000000,500.000000) scale(0.100000,-0.100000)"
fill="#ffffff" stroke="none">
<path d="M2896 3938 c-17 -9 -16 -11 10 -24 16 -8 35 -23 42 -34 10 -17 10
-20 -5 -20 -20 0 -84 -36 -95 -54 -4 -6 -8 -22 -8 -36 0 -25 -2 -25 -78 -25
-42 0 -95 -6 -117 -13 -41 -14 -247 -38 -411 -49 -84 -5 -94 -4 -122 17 -22
16 -38 21 -57 16 -14 -4 -23 -11 -20 -15 3 -5 -1 -12 -7 -14 -7 -3 -1 -6 15
-6 21 -1 27 -6 27 -24 0 -25 0 -25 344 -42 30 -2 42 -8 50 -24 7 -17 18 -21
51 -21 25 0 48 -6 55 -15 10 -12 5 -17 -24 -29 -22 -9 -36 -22 -36 -33 -1 -10
-15 -27 -33 -38 -56 -35 -69 -75 -62 -186 l6 -96 -47 -62 c-68 -91 -109 -132
-126 -126 -8 3 -41 -1 -74 -10 -32 -9 -97 -20 -143 -25 -46 -5 -88 -13 -94
-19 -6 -6 -28 1 -61 19 l-52 28 -22 -34 c-12 -19 -22 -42 -22 -52 0 -10 -9
-28 -20 -40 -24 -25 -50 -93 -50 -128 l0 -24 -137 -1 c-677 -4 -635 -2 -678
-25 l-39 -22 -41 22 c-35 19 -56 21 -185 21 -164 0 -188 -8 -237 -72 -26 -34
-28 -42 -28 -138 0 -79 4 -107 18 -128 24 -38 24 -186 -1 -224 -13 -21 -17
-49 -17 -128 0 -113 8 -133 72 -182 l36 -28 454 -3 c438 -2 456 -2 500 18 44
19 47 20 72 3 22 -15 49 -18 181 -18 133 0 159 3 182 18 26 18 28 18 54 0 24
-16 51 -18 218 -18 105 1 205 1 221 2 17 1 120 0 231 -3 177 -5 207 -3 254 13
52 18 55 18 109 0 48 -16 79 -18 211 -15 149 3 157 4 203 31 44 26 50 27 66
13 44 -40 80 -45 317 -45 182 0 240 3 281 16 45 13 55 14 69 2 13 -11 66 -15
223 -17 250 -4 281 0 328 41 55 49 63 77 63 240 0 128 -2 147 -22 187 -28 54
-62 80 -115 87 l-39 5 4 109 c4 102 3 110 -21 152 -18 30 -39 49 -69 63 -40
18 -68 19 -558 18 -283 -1 -542 -1 -575 -1 -256 5 -331 1 -376 -16 -40 -15
-50 -16 -80 -3 -19 7 -60 17 -91 20 -56 7 -57 8 -64 44 -4 20 -1 87 7 147 17
141 16 202 -4 241 -15 30 -15 32 4 50 13 12 19 28 17 48 -3 26 0 31 21 32 26
2 103 77 181 178 59 77 85 103 153 153 96 72 88 115 -52 258 -97 99 -109 107
-135 93z m164 -224 c0 -9 -11 -14 -30 -14 -34 0 -35 4 -17 43 l12 27 18 -21
c9 -12 17 -27 17 -35z m-493 -719 c-4 -8 0 -27 8 -42 11 -20 15 -62 15 -140
l0 -113 -152 -1 c-284 -2 -691 1 -695 5 -9 9 59 74 89 87 18 7 41 20 50 30 15
15 32 17 135 13 207 -9 364 21 396 73 4 7 13 13 20 13 7 1 37 21 67 45 57 47
76 55 67 30z m-1757 -510 l0 -125 -25 0 c-23 0 -25 -3 -25 -50 l0 -50 85 0 85
0 0 50 c0 38 -4 50 -15 50 -13 0 -15 21 -15 125 l0 125 544 0 c324 0 547 -4
551 -9 3 -5 17 -6 33 -2 41 12 540 12 547 0 4 -5 4 -23 0 -39 -6 -29 -8 -30
-71 -30 l-64 0 0 -50 c0 -43 3 -50 20 -50 19 0 20 -7 20 -185 0 -178 -1 -185
-20 -185 -17 0 -20 -7 -20 -50 l0 -50 184 0 185 0 20 26 c18 23 21 41 21 124
0 82 -3 102 -19 121 -18 22 -18 25 -3 42 18 20 28 125 18 180 -11 59 -27 71
-103 77 l-68 5 33 18 c28 15 31 21 22 37 -9 18 -7 20 17 20 47 0 98 -19 122
-44 l22 -24 24 23 c12 13 40 28 61 34 25 6 300 10 757 11 l717 0 0 -125 0
-125 -25 0 c-23 0 -25 -3 -25 -50 l0 -50 110 0 110 0 0 -190 0 -190 -265 0
-265 0 0 125 c0 118 1 125 20 125 19 0 20 6 19 108 l-1 107 -15 -65 c-8 -36
-28 -122 -44 -191 -16 -70 -29 -145 -29 -168 l0 -41 -287 2 -288 3 -7 75 c-4
41 -16 107 -27 145 l-19 70 -1 -80 c-1 -63 -6 -91 -24 -125 -39 -77 -57 -85
-225 -88 -171 -4 -201 0 -241 34 -18 15 -32 20 -36 14 -3 -6 -24 -19 -45 -30
-36 -18 -59 -20 -254 -20 -133 0 -217 4 -221 10 -4 7 -13 7 -24 0 -10 -5 -109
-9 -220 -9 l-201 0 0 170 0 169 -50 0 -50 0 0 -45 c0 -38 3 -45 20 -45 19 0
20 -7 20 -125 l0 -125 -180 0 -180 0 0 125 c0 118 1 125 20 125 17 0 20 7 20
45 l0 45 -50 0 -50 0 0 -170 0 -170 -495 0 -495 0 0 125 c0 118 1 125 20 125
19 0 20 7 20 115 0 108 -1 115 -20 115 -19 0 -20 7 -20 125 l0 125 180 0 180
0 0 -125z m1915 -120 l0 -60 -62 -3 -63 -3 0 66 0 66 63 -3 62 -3 0 -60z m0
-230 l0 -70 -62 -3 -63 -3 0 76 0 76 63 -3 62 -3 0 -70z"/>
<path d="M520 2484 c0 -37 4 -47 20 -51 19 -5 20 -14 20 -188 0 -174 -1 -183
-20 -188 -16 -4 -20 -14 -20 -51 l0 -46 195 0 195 0 0 115 0 115 -65 0 -65 0
0 -65 0 -65 -50 0 -50 0 0 185 0 185 30 0 c29 0 30 1 30 50 l0 50 -110 0 -110
0 0 -46z"/>
<path d="M970 2480 c0 -43 3 -50 20 -50 19 0 20 -7 20 -185 0 -178 -1 -185
-20 -185 -17 0 -20 -7 -20 -50 l0 -50 195 0 195 0 0 95 0 95 -55 0 -55 0 0
-45 0 -45 -60 0 -60 0 0 65 0 65 70 0 70 0 0 50 0 50 -70 0 -70 0 0 70 0 70
60 0 60 0 0 -45 0 -45 55 0 55 0 0 95 0 95 -195 0 -195 0 0 -50z"/>
<path d="M1440 2415 l0 -115 55 0 55 0 0 65 0 65 35 0 35 0 0 -184 c0 -184 0
-185 -22 -188 -20 -3 -23 -10 -26 -50 l-3 -48 105 0 106 0 0 50 c0 43 -3 50
-20 50 -19 0 -20 7 -20 185 l0 185 35 0 35 0 0 -65 0 -65 55 0 55 0 0 115 0
115 -240 0 -240 0 0 -115z"/>
<path d="M2027 2518 c-9 -7 -21 -26 -27 -41 -13 -35 -13 -137 0 -171 6 -16 49
-52 119 -98 80 -53 111 -80 114 -97 9 -45 -1 -52 -62 -49 l-56 3 -3 43 -3 43
-57 -3 -57 -3 -3 -92 -3 -93 49 0 c26 0 53 5 59 11 8 8 13 8 17 0 5 -7 47 -11
111 -11 100 0 104 1 124 26 18 22 21 41 21 114 0 103 7 93 -147 189 -103 65
-108 69 -108 102 l0 34 65 0 65 0 3 -42 3 -43 60 0 59 0 0 95 0 95 -43 0 c-24
0 -48 -5 -55 -12 -9 -9 -15 -9 -24 0 -17 17 -199 16 -221 0z"/>
<path d="M2966 2509 l-26 -20 0 -243 c0 -309 -16 -286 196 -286 209 0 194 -22
194 287 l0 242 -26 20 c-24 19 -40 21 -169 21 -129 0 -145 -2 -169 -21z m239
-264 l0 -180 -70 0 -70 0 -3 170 c-1 93 0 175 3 183 3 9 23 12 72 10 l68 -3 0
-180z"/>
<path d="M3390 2481 c0 -43 3 -50 22 -53 23 -3 22 1 66 -193 12 -49 31 -132
42 -182 l22 -93 82 0 82 0 18 108 c10 60 21 114 25 120 4 7 17 -42 30 -108
l23 -120 82 0 82 0 13 63 c7 34 21 98 31 142 10 44 28 122 40 173 18 77 25 92
41 92 16 0 19 7 19 50 l0 50 -95 0 -95 0 0 -50 c0 -39 4 -50 16 -50 10 0 14
-6 11 -17 -3 -10 -18 -81 -32 -158 -15 -77 -31 -144 -35 -149 -5 -4 -13 18
-20 50 -6 33 -22 107 -35 167 -22 103 -22 107 -4 107 16 0 19 8 19 50 l0 50
-85 0 -85 0 0 -50 c0 -39 3 -50 16 -50 12 0 15 -6 11 -22 -3 -13 -18 -81 -32
-153 -29 -143 -33 -160 -41 -153 -4 5 -64 302 -64 321 0 4 7 7 15 7 11 0 15
12 15 50 l0 50 -100 0 -100 0 0 -49z"/>
<path d="M4160 2480 c0 -43 3 -50 20 -50 19 0 20 -7 20 -184 0 -175 -1 -184
-20 -189 -16 -4 -20 -14 -20 -51 l0 -46 195 0 195 0 0 115 0 115 -65 0 -65 0
0 -65 0 -65 -50 0 -50 0 0 185 0 185 30 0 c29 0 30 1 30 50 l0 50 -110 0 -110
0 0 -50z"/>
<path d="M1345 2257 c-4 -11 -3 -23 4 -30 15 -15 19 -7 11 23 -6 22 -8 23 -15
7z"/>
<path d="M425 1540 l0 -70 48 0 c56 0 59 5 49 80 l-7 55 -45 3 -45 3 0 -71z
m75 30 c0 -13 -7 -20 -20 -20 -13 0 -20 7 -20 20 0 13 7 20 20 20 13 0 20 -7
20 -20z m-2 -58 c3 -17 -2 -22 -17 -22 -14 0 -21 6 -21 18 0 38 33 41 38 4z"/>
<path d="M564 1596 c-3 -7 -4 -38 -2 -67 l3 -54 43 -3 42 -3 0 70 0 71 -40 0
c-25 0 -43 -5 -46 -14z m66 -56 c0 -47 -2 -50 -25 -50 -23 0 -25 3 -25 50 0
47 2 50 25 50 23 0 25 -3 25 -50z"/>
<path d="M686 1588 c4 -13 13 -43 19 -68 15 -55 42 -66 51 -21 8 38 22 40 26
4 2 -20 9 -28 23 -28 15 0 22 11 31 50 6 28 15 58 19 68 5 13 2 17 -12 17 -15
0 -20 -7 -20 -28 0 -87 -33 -104 -36 -18 -2 33 -6 46 -17 46 -11 0 -16 -13
-17 -51 -1 -29 -5 -54 -8 -58 -12 -11 -25 24 -25 67 0 36 -3 42 -21 42 -17 0
-19 -4 -13 -22z"/>
<path d="M895 1540 l0 -70 43 0 c38 0 42 2 42 25 0 14 -4 25 -10 25 -5 0 -10
-7 -10 -15 0 -9 -9 -15 -21 -15 -20 0 -21 4 -17 60 4 50 2 60 -11 60 -13 0
-16 -13 -16 -70z"/>
<path d="M1015 1540 c0 -56 3 -70 15 -70 12 0 15 14 15 70 0 56 -3 70 -15 70
-12 0 -15 -14 -15 -70z"/>
<path d="M1085 1540 c0 -58 3 -70 17 -70 13 0 15 7 11 40 -3 22 -3 40 0 40 4
0 16 -18 27 -40 11 -22 25 -40 30 -40 6 0 10 24 10 54 0 30 3 61 6 70 4 11 0
16 -14 16 -18 0 -19 -5 -15 -40 3 -22 3 -40 0 -40 -4 0 -16 18 -27 40 -31 61
-45 52 -45 -30z"/>
<path d="M1224 1597 c-3 -8 -4 -39 -2 -68 l3 -54 43 -1 c41 -2 42 -1 42 32 0
28 -4 34 -22 34 -17 0 -19 -3 -10 -12 20 -20 14 -38 -13 -38 -23 0 -25 3 -25
50 0 47 2 50 25 50 14 0 25 -4 25 -10 0 -5 5 -10 10 -10 6 0 10 8 10 18 0 22
-77 30 -86 9z"/>
<path d="M1390 1515 c0 -57 4 -95 10 -95 6 0 10 38 10 95 0 57 -4 95 -10 95
-6 0 -10 -38 -10 -95z"/>
<path d="M1485 1601 c-3 -5 -1 -12 5 -16 13 -8 13 -95 0 -95 -5 0 -10 -5 -10
-11 0 -6 21 -9 53 -7 l52 3 1 50 c2 80 -1 85 -51 85 -24 0 -46 -4 -50 -9z m75
-31 c0 -13 -7 -20 -20 -20 -13 0 -20 7 -20 20 0 13 7 20 20 20 13 0 20 -7 20
-20z m-2 -58 c3 -17 -2 -22 -17 -22 -14 0 -21 6 -21 18 0 38 33 41 38 4z"/>
<path d="M1615 1540 c0 -63 2 -70 20 -70 18 0 20 7 20 70 0 63 -2 70 -20 70
-18 0 -20 -7 -20 -70z"/>
<path d="M1685 1540 l0 -71 45 3 c37 2 45 7 45 22 0 11 -6 21 -12 24 -7 2 -13
-3 -13 -12 0 -9 -7 -16 -16 -16 -14 0 -16 10 -12 60 4 55 3 60 -16 60 -19 0
-21 -6 -21 -70z"/>
<path d="M1805 1540 l0 -70 48 0 c44 0 47 2 47 25 0 16 -6 25 -15 25 -8 0 -15
-7 -15 -16 0 -9 -7 -14 -17 -12 -14 3 -17 12 -15 43 2 22 5 48 8 58 4 13 0 17
-18 17 -22 0 -23 -3 -23 -70z"/>
<path d="M1925 1540 c0 -63 2 -70 20 -70 18 0 20 7 20 70 0 63 -2 70 -20 70
-18 0 -20 -7 -20 -70z"/>
<path d="M2015 1590 c6 -18 -2 -60 -20 -102 -5 -14 -2 -18 14 -18 15 0 21 5
19 18 -2 12 5 18 25 20 25 3 28 1 22 -17 -5 -17 -2 -21 14 -21 23 0 27 10 11
26 -6 6 -12 34 -13 62 l-2 52 -38 0 c-34 0 -38 -2 -32 -20z m49 -26 c8 -29 -8
-54 -23 -38 -11 10 -3 64 9 64 4 0 11 -12 14 -26z"/>
<path d="M2135 1540 c0 -62 2 -70 19 -70 13 0 17 5 13 19 -2 10 -1 25 4 32 5
9 13 4 26 -19 10 -18 24 -32 31 -32 15 0 16 12 0 28 -10 10 -10 17 0 32 29 47
8 80 -52 80 l-41 0 0 -70z m75 25 c0 -18 -5 -25 -19 -25 -11 0 -23 5 -26 10
-11 18 3 40 25 40 15 0 20 -7 20 -25z"/>
<path d="M2265 1540 l0 -70 48 0 48 0 -3 68 -3 67 -45 3 -45 3 0 -71z m75 0
c0 -43 -3 -50 -20 -50 -17 0 -20 7 -20 50 0 43 3 50 20 50 17 0 20 -7 20 -50z"/>
<path d="M2401 1597 c-19 -19 -13 -35 24 -63 40 -30 44 -44 15 -44 -11 0 -20
5 -20 10 0 6 -7 10 -15 10 -8 0 -15 -9 -15 -19 0 -16 7 -19 48 -17 41 1 47 4
50 23 3 17 -6 28 -32 44 -39 23 -48 49 -16 49 11 0 20 -4 20 -10 0 -5 7 -10
15 -10 8 0 15 8 15 18 0 14 -9 18 -39 19 -21 1 -43 -3 -50 -10z"/>
<path d="M2560 1515 c0 -78 3 -95 15 -95 12 0 15 17 15 95 0 78 -3 95 -15 95
-12 0 -15 -17 -15 -95z"/>
<path d="M2664 1597 c-3 -8 -4 -39 -2 -68 l3 -54 43 -1 c35 -2 42 1 42 17 0
10 -4 19 -10 19 -5 0 -10 -4 -10 -10 0 -5 -11 -10 -26 -10 -24 0 -25 2 -22 48
3 40 6 47 26 50 12 2 22 -1 22 -7 0 -6 5 -11 10 -11 6 0 10 8 10 18 0 22 -77
30 -86 9z"/>
<path d="M2785 1540 c0 -66 1 -70 23 -70 24 0 28 10 10 28 -9 9 -9 15 -1 23 8
8 16 3 27 -20 9 -17 23 -31 31 -31 19 0 19 8 0 27 -12 11 -13 19 -5 28 6 8 10
29 8 47 -3 31 -5 33 -48 36 l-45 3 0 -71z m75 25 c0 -18 -5 -25 -19 -25 -11 0
-23 5 -26 10 -11 18 3 40 25 40 15 0 20 -7 20 -25z"/>
<path d="M2915 1540 c0 -66 1 -70 22 -70 20 0 22 4 16 33 -9 40 -8 67 1 90 7
13 3 17 -15 17 -23 0 -24 -3 -24 -70z"/>
<path d="M2984 1586 c-3 -12 -4 -42 -2 -67 l3 -44 48 -3 c42 -3 47 -1 47 17 0
12 -7 21 -15 21 -8 0 -15 -4 -15 -10 0 -5 -9 -10 -20 -10 -17 0 -20 7 -20 50
0 43 3 50 20 50 11 0 20 -4 20 -10 0 -5 7 -10 15 -10 8 0 15 8 15 18 0 14 -9
18 -45 20 -39 1 -45 -1 -51 -22z"/>
<path d="M3100 1601 c0 -6 5 -13 10 -16 6 -3 10 -24 10 -45 0 -21 -4 -42 -10
-45 -18 -11 -10 -25 15 -25 22 0 25 3 19 24 -3 14 -1 27 6 31 16 10 31 -15 24
-37 -4 -14 0 -18 20 -18 14 0 26 5 26 10 0 6 -4 10 -8 10 -4 0 -14 17 -21 37
-13 34 -12 38 8 54 28 23 27 29 -5 29 -16 0 -24 -5 -21 -12 6 -17 -11 -48 -25
-48 -6 0 -8 11 -4 30 5 27 3 30 -19 30 -14 0 -25 -4 -25 -9z"/>
<path d="M3245 1540 l0 -70 48 0 c40 0 47 3 47 20 0 11 -4 20 -10 20 -5 0 -10
-4 -10 -10 0 -5 -11 -10 -25 -10 -18 0 -25 5 -25 20 0 13 7 20 20 20 11 0 20
5 20 10 0 6 -9 10 -20 10 -13 0 -20 7 -20 20 0 15 7 20 25 20 14 0 25 -4 25
-10 0 -5 5 -10 10 -10 6 0 10 9 10 20 0 17 -7 20 -47 20 l-48 0 0 -70z"/>
<path d="M3370 1585 c0 -14 5 -25 10 -25 6 0 10 7 10 15 0 8 5 15 11 15 8 0
10 -20 7 -60 -4 -56 -3 -60 17 -60 20 0 21 4 17 60 -3 40 -1 60 7 60 6 0 11
-7 11 -15 0 -8 7 -15 15 -15 9 0 15 9 15 25 0 24 -3 25 -60 25 -57 0 -60 -1
-60 -25z"/>
<path d="M3560 1515 c0 -78 3 -95 15 -95 12 0 15 17 15 95 0 78 -3 95 -15 95
-12 0 -15 -17 -15 -95z"/>
<path d="M3665 1540 c0 -66 1 -70 22 -70 13 0 23 5 23 10 0 6 -4 10 -10 10
-21 0 -10 39 13 43 l22 4 -22 8 c-29 9 -31 45 -3 45 11 0 20 -4 20 -10 0 -5 5
-10 10 -10 6 0 10 9 10 20 0 17 -7 20 -42 20 l-43 0 0 -70z"/>
<path d="M3784 1597 c-3 -8 -4 -39 -2 -68 l3 -54 45 0 45 0 0 65 0 65 -43 3
c-29 2 -44 -1 -48 -11z m66 -58 c0 -47 -2 -50 -22 -47 -18 2 -24 11 -26 36 -4
45 3 62 28 62 17 0 20 -6 20 -51z"/>
<path d="M3914 1596 c-3 -7 -4 -38 -2 -67 l3 -54 43 -3 42 -3 0 70 0 71 -40 0
c-25 0 -43 -5 -46 -14z m66 -56 c0 -47 -2 -50 -25 -50 -23 0 -25 3 -25 50 0
47 2 50 25 50 23 0 25 -3 25 -50z"/>
<path d="M4030 1585 c0 -16 6 -25 15 -25 8 0 15 7 15 15 0 8 5 15 11 15 8 0
10 -20 7 -60 -4 -56 -3 -60 17 -60 20 0 21 4 17 60 -3 40 -1 60 7 60 6 0 11
-7 11 -15 0 -8 5 -15 10 -15 6 0 10 11 10 25 0 24 -3 25 -60 25 -57 0 -60 -1
-60 -25z"/>
<path d="M4185 1540 l0 -71 45 3 45 3 0 65 0 65 -45 3 -45 3 0 -71z m68 44
c11 -11 -5 -34 -24 -34 -12 0 -19 7 -19 20 0 19 28 28 43 14z m-3 -59 c15 -18
5 -35 -21 -35 -12 0 -19 7 -19 18 0 33 20 42 40 17z"/>
<path d="M4335 1591 c3 -10 2 -29 -3 -42 -5 -13 -12 -36 -16 -51 -5 -24 -3
-28 14 -28 17 0 20 4 15 20 -5 17 -2 20 20 20 22 0 25 -3 20 -20 -5 -16 -2
-20 19 -20 26 0 36 15 15 22 -6 2 -12 29 -13 61 l-1 57 -38 0 c-33 0 -38 -3
-32 -19z m45 -48 c0 -14 -6 -23 -15 -23 -16 0 -20 26 -9 55 5 13 8 14 15 3 5
-7 9 -23 9 -35z"/>
<path d="M4455 1540 l0 -70 43 0 c38 0 42 2 42 25 0 14 -4 25 -10 25 -5 0 -10
-7 -10 -15 0 -8 -9 -15 -20 -15 -17 0 -20 7 -20 50 0 28 5 50 10 50 6 0 10 5
10 10 0 6 -10 10 -22 10 -22 0 -23 -4 -23 -70z"/>
<path d="M4575 1540 l0 -70 43 0 c38 0 42 2 42 25 0 14 -4 25 -10 25 -5 0 -10
-7 -10 -15 0 -9 -9 -15 -21 -15 -20 0 -21 4 -17 60 4 50 2 60 -11 60 -13 0
-16 -13 -16 -70z"/>
</g>
</svg>
